<svg xmlns="http://www.w3.org/2000/svg" viewBox="0 0 890.8 333.4"><g fill="#FFF"><path d="M0 134.7l23.9-28.6c15.3 12.2 32.4 18.6 50.3 18.6 11.5 0 17.7-4 17.7-10.6v-.4c0-6.4-5.1-10-26.1-14.8C32.8 91.3 7.3 82 7.3 50.1v-.4C7.3 20.8 30.1 0 67.4 0c26.4 0 47 7.1 63.8 20.6L109.7 51C95.5 41 80 35.7 66.3 35.7c-10.4 0-15.5 4.4-15.5 10v.4c0 7.1 5.3 10.2 26.8 15.1 35.7 7.8 57.8 19.3 57.8 48.3v.4c0 31.7-25 50.5-62.7 50.5-27.5 0-53.6-8.6-72.7-25.7zM153.1 2.7h45.4l27 89.7 29.9-90.2h37l29.9 90.2 27-89.7H394l-51.9 156.2h-37.4l-31.2-89.3-31 89.3H205L153.1 2.7zM457.6 1.6H499l66 156.2h-46l-11.3-27.7h-59.8l-11.1 27.7h-45.2l66-156.2zm37.7 95L478 52.5l-17.5 44.1h34.8zM579 134.7l23.9-28.6c15.3 12.2 32.4 18.6 50.3 18.6 11.5 0 17.7-4 17.7-10.6v-.4c0-6.4-5.1-10-26.1-14.8-33-7.5-58.5-16.8-58.5-48.8v-.4c0-28.8 22.8-49.6 60.1-49.6 26.4 0 47 7.1 63.8 20.6L688.7 51c-14.2-10-29.7-15.3-43.4-15.3-10.4 0-15.5 4.4-15.5 10v.4c0 7.1 5.3 10.2 26.8 15.1 35.7 7.8 57.8 19.3 57.8 48.3v.4c0 31.7-25 50.5-62.7 50.5-27.4 0-53.6-8.6-72.7-25.7zM748.1 2.7h43v58.1h55.2V2.7h43v155.1h-43v-59h-55.2v58.9h-43V2.7z"/></g><g fill="#FFF"><path d="M10.9 275.6v-.4c0-31.5 24.6-57.8 56.7-57.8 20.4 0 33.2 8.9 44.3 20.6l-3.3 3.1c-10-10.6-22.6-19.3-41.2-19.3-29.5 0-51.6 24.4-51.6 53.2v.4c0 28.8 22.8 53.6 51.9 53.6 19.1 0 31.9-9.5 41.7-20.6l3.3 3.1c-10.4 12.2-24.4 21.9-45.2 21.9-31.8 0-56.6-26.4-56.6-57.8zM154.5 219.9h4.7v35.5c5.1-18.4 21.1-38.3 45.6-38.1v4.4h-1.1c-27.7 0-44.5 30.4-44.5 51.6v57.4h-4.7V219.9zM226.9 275.3v-.4c0-32.8 22.4-57.6 53.2-57.6 35 0 51 30.8 51 58.5v.9H232c.9 31.9 23.3 52.3 50.5 52.3 17.1 0 32.1-10 41-22.4l3.8 2.7c-9.5 13.7-25.5 24.2-45 24.2-30.3-.1-55.4-22.5-55.4-58.2zm99.1-2.8c-.9-25.3-16.8-50.7-46.1-50.7-27.5 0-46.8 21.7-47.9 50.7h94zM366.1 300.2v-.4c0-23.3 21.7-35.2 49.4-35.2 15.5 0 30.6 2.9 41.7 6.9V262c0-26.8-16-39.4-41.9-39.4-13.7 0-25.3 3.8-36.8 9.3l-1.8-4c12.2-6 24.4-9.8 38.8-9.8 15.3 0 27.3 4 35.5 12.2 6.9 6.9 10.9 17.7 10.9 31.5v68.9h-4.7v-26.1c-4.7 12.9-21.3 28.8-49.6 28.8-21.8 0-41.5-11.3-41.5-33.2zm91.1-10V276c-11.7-4.4-24.6-7.1-41.4-7.1-25 0-44.8 10.2-44.8 30.6v.4c0 19.5 17.3 29 36.8 29 29.6.1 49.4-19 49.4-38.7zM517.2 302.4v-78.2h-17.5V220h17.5v-38.3h4.7V220h41v4.2h-41V302c0 16.6 8 26.4 23.7 26.4 5.5 0 11.5-1.3 16.8-4v4.9c-5.3 2.4-11.1 3.5-16.8 3.5-18.4-.1-28.4-11.2-28.4-30.4zM605.6 175.6h6.9v12.6h-6.9v-12.6zm1.1 44.3h4.7v110.8h-4.7V219.9zM653.9 219.9h5.1l48.1 105.9L755 219.9h4.9l-51 111.7h-3.5l-51.5-111.7zM786.7 275.3v-.4c0-32.8 22.4-57.6 53.2-57.6 35 0 51 30.8 51 58.5v.9h-99.1c.9 31.9 23.3 52.3 50.5 52.3 17.1 0 32.1-10 41-22.4l3.8 2.7c-9.5 13.7-25.5 24.2-45 24.2-30.4-.1-55.4-22.5-55.4-58.2zm99-2.8c-.9-25.3-16.8-50.7-46.1-50.7-27.5 0-46.8 21.7-47.9 50.7h94z"/></g></svg>